# xmcd
#
# Track frame offsets:
#	150
#	13463
#	28402
#	50128
#	68510
#	82958
#	101882
#	120660
#	139232
#	151936
#
# Disc length: 2477 seconds
# Revision: 0
# Processed by: cddbd v1.5.2PL0 Copyright (c) Steve Scherf et al.
# Submitted via: dBpowerAMP V12.0
#
DISCID=8b09ab0a
DTITLE=The Johnny Cass Band - Tombstone Bullets
DYEAR=2013
DGENRE=Blues
TTITLE0=Sun Goes Down
TTITLE1=Dead A Long Time
TTITLE2=Morning
TTITLE3=Open At Sunset
TTITLE4=Rather Be Here
TTITLE5=Keep Your Lamplight Alive
TTITLE6=Holdin On
TTITLE7=Steal Me
TTITLE8=Tombstone Bullets
TTITLE9=Open All Night
EXTD=
EXTT0=
EXTT1=
EXTT2=
EXTT3=
EXTT4=
EXTT5=
EXTT6=
EXTT7=
EXTT8=
EXTT9=
PLAYORDER=
